<mxfile host="Electron" modified="2024-10-03T09:43:00.005Z" agent="Mozilla/5.0 (Windows NT 10.0; Win64; x64) AppleWebKit/537.36 (KHTML, like Gecko) draw.io/22.0.2 Chrome/114.0.5735.289 Electron/25.8.4 Safari/537.36" etag="l9PZfngWIg0tiuNvp_eo" version="22.0.2" type="device">
  <diagram name="Page-1" id="58cdce13-f638-feb5-8d6f-7d28b1aa9fa0">
    <mxGraphModel dx="1480" dy="866" grid="1" gridSize="10" guides="1" tooltips="1" connect="1" arrows="1" fold="1" page="1" pageScale="1" pageWidth="1100" pageHeight="850" background="none" math="0" shadow="0">
      <root>
        <mxCell id="0" />
        <mxCell id="1" parent="0" />
        <mxCell id="bzfqSmUNicRm9-nV7HIu-169" value="" style="ellipse;html=1;shape=endState;fillColor=#000000;strokeColor=#ff0000;" parent="1" vertex="1">
          <mxGeometry x="810" y="30" width="30" height="30" as="geometry" />
        </mxCell>
        <mxCell id="Yj1KJ74iZ36UAPx4u5bu-6" value="" style="edgeStyle=orthogonalEdgeStyle;rounded=0;orthogonalLoop=1;jettySize=auto;html=1;" parent="1" source="8bAAXkou12h0lEfON1XA-2" target="8bAAXkou12h0lEfON1XA-3" edge="1">
          <mxGeometry relative="1" as="geometry" />
        </mxCell>
        <mxCell id="8bAAXkou12h0lEfON1XA-2" value="" style="ellipse;html=1;shape=startState;fillColor=#000000;strokeColor=#ff0000;rounded=1;shadow=0;comic=0;labelBackgroundColor=none;fontFamily=Verdana;fontSize=12;fontColor=#000000;align=center;direction=south;" parent="1" vertex="1">
          <mxGeometry x="85" y="565" width="30" height="30" as="geometry" />
        </mxCell>
        <mxCell id="R_if8HKXHMpn8NLjSrms-2" value="" style="edgeStyle=orthogonalEdgeStyle;rounded=0;orthogonalLoop=1;jettySize=auto;html=1;" parent="1" source="8bAAXkou12h0lEfON1XA-3" target="8bAAXkou12h0lEfON1XA-33" edge="1">
          <mxGeometry relative="1" as="geometry">
            <mxPoint x="290" y="770" as="targetPoint" />
          </mxGeometry>
        </mxCell>
        <mxCell id="8bAAXkou12h0lEfON1XA-3" value="Зайти в приложение" style="rounded=1;whiteSpace=wrap;html=1;arcSize=24;fillColor=default;strokeColor=default;shadow=0;comic=0;labelBackgroundColor=none;fontFamily=Verdana;fontSize=16;fontColor=#000000;align=center;" parent="1" vertex="1">
          <mxGeometry x="40" y="740" width="120" height="60" as="geometry" />
        </mxCell>
        <mxCell id="8bAAXkou12h0lEfON1XA-46" value="" style="edgeStyle=orthogonalEdgeStyle;rounded=0;orthogonalLoop=1;jettySize=auto;html=1;" parent="1" source="8bAAXkou12h0lEfON1XA-33" target="8bAAXkou12h0lEfON1XA-37" edge="1">
          <mxGeometry relative="1" as="geometry" />
        </mxCell>
        <mxCell id="Xvav63jD-Fan8T9vVufA-37" value="&lt;font style=&quot;font-size: 25px;&quot;&gt;да&lt;br&gt;&lt;/font&gt;" style="edgeLabel;html=1;align=center;verticalAlign=middle;resizable=0;points=[];" parent="8bAAXkou12h0lEfON1XA-46" vertex="1" connectable="0">
          <mxGeometry x="0.0304" y="1" relative="1" as="geometry">
            <mxPoint y="1" as="offset" />
          </mxGeometry>
        </mxCell>
        <mxCell id="3Zs_k1GJ8m34iC-cURaJ-2" style="edgeStyle=orthogonalEdgeStyle;rounded=0;orthogonalLoop=1;jettySize=auto;html=1;exitX=1;exitY=0.5;exitDx=0;exitDy=0;" edge="1" parent="1" source="8bAAXkou12h0lEfON1XA-33" target="8bAAXkou12h0lEfON1XA-115">
          <mxGeometry relative="1" as="geometry">
            <Array as="points">
              <mxPoint x="800" y="769" />
              <mxPoint x="800" y="100" />
            </Array>
          </mxGeometry>
        </mxCell>
        <mxCell id="8bAAXkou12h0lEfON1XA-33" value="Работать&lt;br&gt;с журналом о передвижении&lt;br&gt;ключей?" style="rhombus;whiteSpace=wrap;html=1;fontSize=16;" parent="1" vertex="1">
          <mxGeometry x="330" y="712.75" width="210" height="112.5" as="geometry" />
        </mxCell>
        <mxCell id="8bAAXkou12h0lEfON1XA-37" value="&lt;font style=&quot;font-size: 16px;&quot;&gt;Добавить &lt;br&gt;запись&lt;br&gt;в журнал?&lt;/font&gt;" style="rhombus;whiteSpace=wrap;html=1;fontSize=16;" parent="1" vertex="1">
          <mxGeometry x="350" y="559" width="170" height="100" as="geometry" />
        </mxCell>
        <mxCell id="8bAAXkou12h0lEfON1XA-38" value="Добавление&amp;nbsp;&lt;br&gt;записи&lt;br style=&quot;border-color: var(--border-color);&quot;&gt;в журнал" style="whiteSpace=wrap;html=1;rounded=1;fontSize=16;" parent="1" vertex="1">
          <mxGeometry x="590" y="579" width="120" height="60" as="geometry" />
        </mxCell>
        <mxCell id="8bAAXkou12h0lEfON1XA-41" value="&lt;font style=&quot;font-size: 16px;&quot;&gt;Изменить&lt;br&gt;запись&lt;br style=&quot;border-color: var(--border-color);&quot;&gt;в журнале?&lt;/font&gt;" style="rhombus;whiteSpace=wrap;html=1;fontSize=16;" parent="1" vertex="1">
          <mxGeometry x="350" y="389" width="170" height="110" as="geometry" />
        </mxCell>
        <mxCell id="8bAAXkou12h0lEfON1XA-42" value="Изменение&amp;nbsp;&lt;br&gt;записи&lt;br style=&quot;border-color: var(--border-color);&quot;&gt;в журнале" style="whiteSpace=wrap;html=1;rounded=1;fontSize=16;" parent="1" vertex="1">
          <mxGeometry x="590" y="414" width="120" height="60" as="geometry" />
        </mxCell>
        <mxCell id="Yj1KJ74iZ36UAPx4u5bu-11" value="" style="edgeStyle=orthogonalEdgeStyle;rounded=0;orthogonalLoop=1;jettySize=auto;html=1;" parent="1" source="8bAAXkou12h0lEfON1XA-44" target="8bAAXkou12h0lEfON1XA-115" edge="1">
          <mxGeometry relative="1" as="geometry">
            <Array as="points">
              <mxPoint x="435" y="130" />
            </Array>
          </mxGeometry>
        </mxCell>
        <mxCell id="Xvav63jD-Fan8T9vVufA-23" value="&lt;font style=&quot;font-size: 25px;&quot;&gt;нет&lt;/font&gt;" style="edgeLabel;html=1;align=center;verticalAlign=middle;resizable=0;points=[];" parent="Yj1KJ74iZ36UAPx4u5bu-11" vertex="1" connectable="0">
          <mxGeometry x="-0.3628" relative="1" as="geometry">
            <mxPoint y="1" as="offset" />
          </mxGeometry>
        </mxCell>
        <mxCell id="8bAAXkou12h0lEfON1XA-44" value="&lt;font style=&quot;font-size: 16px;&quot;&gt;Удалить&lt;br&gt;запись&lt;br style=&quot;border-color: var(--border-color);&quot;&gt;в журнале?&lt;br&gt;&lt;/font&gt;" style="rhombus;whiteSpace=wrap;html=1;fontSize=16;" parent="1" vertex="1">
          <mxGeometry x="350" y="229" width="170" height="110" as="geometry" />
        </mxCell>
        <mxCell id="8bAAXkou12h0lEfON1XA-45" value="Удаление&lt;br&gt;&amp;nbsp;записи&lt;br style=&quot;border-color: var(--border-color);&quot;&gt;в журнале" style="whiteSpace=wrap;html=1;rounded=1;fontSize=16;" parent="1" vertex="1">
          <mxGeometry x="590" y="254" width="120" height="60" as="geometry" />
        </mxCell>
        <mxCell id="3Zs_k1GJ8m34iC-cURaJ-1" style="edgeStyle=orthogonalEdgeStyle;rounded=0;orthogonalLoop=1;jettySize=auto;html=1;exitX=0;exitY=0.5;exitDx=0;exitDy=0;exitPerimeter=0;" edge="1" parent="1" source="8bAAXkou12h0lEfON1XA-105" target="8bAAXkou12h0lEfON1XA-115">
          <mxGeometry relative="1" as="geometry">
            <Array as="points">
              <mxPoint x="748" y="140" />
            </Array>
          </mxGeometry>
        </mxCell>
        <mxCell id="8bAAXkou12h0lEfON1XA-105" value="" style="shape=line;html=1;strokeWidth=6;strokeColor=#000000;rotation=90;fillColor=#000000;" parent="1" vertex="1">
          <mxGeometry x="552.5" y="441.5" width="390" height="10" as="geometry" />
        </mxCell>
        <mxCell id="8bAAXkou12h0lEfON1XA-106" style="edgeStyle=orthogonalEdgeStyle;rounded=0;orthogonalLoop=1;jettySize=auto;html=1;exitX=1;exitY=0.5;exitDx=0;exitDy=0;entryX=0.918;entryY=0.75;entryDx=0;entryDy=0;entryPerimeter=0;" parent="1" source="8bAAXkou12h0lEfON1XA-38" target="8bAAXkou12h0lEfON1XA-105" edge="1">
          <mxGeometry relative="1" as="geometry" />
        </mxCell>
        <mxCell id="8bAAXkou12h0lEfON1XA-107" style="edgeStyle=orthogonalEdgeStyle;rounded=0;orthogonalLoop=1;jettySize=auto;html=1;exitX=1;exitY=0.5;exitDx=0;exitDy=0;entryX=0.493;entryY=0.75;entryDx=0;entryDy=0;entryPerimeter=0;" parent="1" source="8bAAXkou12h0lEfON1XA-42" target="8bAAXkou12h0lEfON1XA-105" edge="1">
          <mxGeometry relative="1" as="geometry" />
        </mxCell>
        <mxCell id="8bAAXkou12h0lEfON1XA-108" style="edgeStyle=orthogonalEdgeStyle;rounded=0;orthogonalLoop=1;jettySize=auto;html=1;exitX=1;exitY=0.5;exitDx=0;exitDy=0;entryX=0.082;entryY=0.723;entryDx=0;entryDy=0;entryPerimeter=0;" parent="1" source="8bAAXkou12h0lEfON1XA-45" target="8bAAXkou12h0lEfON1XA-105" edge="1">
          <mxGeometry relative="1" as="geometry" />
        </mxCell>
        <mxCell id="8bAAXkou12h0lEfON1XA-125" value="" style="edgeStyle=orthogonalEdgeStyle;rounded=0;orthogonalLoop=1;jettySize=auto;html=1;" parent="1" source="8bAAXkou12h0lEfON1XA-115" target="bzfqSmUNicRm9-nV7HIu-169" edge="1">
          <mxGeometry relative="1" as="geometry">
            <Array as="points">
              <mxPoint x="700" y="45" />
            </Array>
          </mxGeometry>
        </mxCell>
        <mxCell id="Xvav63jD-Fan8T9vVufA-40" value="&lt;font style=&quot;font-size: 25px;&quot;&gt;нет&lt;/font&gt;" style="edgeLabel;html=1;align=center;verticalAlign=middle;resizable=0;points=[];" parent="8bAAXkou12h0lEfON1XA-125" vertex="1" connectable="0">
          <mxGeometry x="-0.0582" y="-1" relative="1" as="geometry">
            <mxPoint as="offset" />
          </mxGeometry>
        </mxCell>
        <mxCell id="8bAAXkou12h0lEfON1XA-115" value="&lt;font style=&quot;font-size: 25px;&quot;&gt;Сделать&lt;br style=&quot;font-size: 25px;&quot;&gt;что-то ещё?&lt;/font&gt;" style="rhombus;whiteSpace=wrap;html=1;fontSize=25;" parent="1" vertex="1">
          <mxGeometry x="481" y="50" width="250" height="100" as="geometry" />
        </mxCell>
        <mxCell id="Yj1KJ74iZ36UAPx4u5bu-1" value="" style="edgeStyle=orthogonalEdgeStyle;rounded=0;orthogonalLoop=1;jettySize=auto;html=1;exitX=0;exitY=0.5;exitDx=0;exitDy=0;" parent="1" source="8bAAXkou12h0lEfON1XA-115" edge="1">
          <mxGeometry relative="1" as="geometry">
            <mxPoint x="180" y="771.0000610351562" as="targetPoint" />
            <mxPoint x="1240" y="100" as="sourcePoint" />
          </mxGeometry>
        </mxCell>
        <mxCell id="Xvav63jD-Fan8T9vVufA-41" value="&lt;font style=&quot;font-size: 25px;&quot;&gt;да&lt;/font&gt;" style="edgeLabel;html=1;align=center;verticalAlign=middle;resizable=0;points=[];" parent="Yj1KJ74iZ36UAPx4u5bu-1" vertex="1" connectable="0">
          <mxGeometry x="-0.922" relative="1" as="geometry">
            <mxPoint x="-1" as="offset" />
          </mxGeometry>
        </mxCell>
        <mxCell id="Xvav63jD-Fan8T9vVufA-16" value="" style="edgeStyle=orthogonalEdgeStyle;rounded=0;orthogonalLoop=1;jettySize=auto;html=1;" parent="1" source="8bAAXkou12h0lEfON1XA-37" target="8bAAXkou12h0lEfON1XA-38" edge="1">
          <mxGeometry relative="1" as="geometry">
            <mxPoint x="124.5" y="660" as="sourcePoint" />
            <mxPoint x="188.5" y="660" as="targetPoint" />
          </mxGeometry>
        </mxCell>
        <mxCell id="Xvav63jD-Fan8T9vVufA-17" value="&lt;font style=&quot;font-size: 25px;&quot;&gt;да&lt;/font&gt;" style="edgeLabel;html=1;align=center;verticalAlign=middle;resizable=0;points=[];" parent="Xvav63jD-Fan8T9vVufA-16" vertex="1" connectable="0">
          <mxGeometry x="-0.1992" y="-2" relative="1" as="geometry">
            <mxPoint as="offset" />
          </mxGeometry>
        </mxCell>
        <mxCell id="Xvav63jD-Fan8T9vVufA-18" value="" style="edgeStyle=orthogonalEdgeStyle;rounded=0;orthogonalLoop=1;jettySize=auto;html=1;" parent="1" source="8bAAXkou12h0lEfON1XA-41" target="8bAAXkou12h0lEfON1XA-42" edge="1">
          <mxGeometry relative="1" as="geometry">
            <mxPoint x="530.5" y="619" as="sourcePoint" />
            <mxPoint x="600.5" y="619" as="targetPoint" />
          </mxGeometry>
        </mxCell>
        <mxCell id="Xvav63jD-Fan8T9vVufA-19" value="&lt;font style=&quot;font-size: 25px;&quot;&gt;да&lt;/font&gt;" style="edgeLabel;html=1;align=center;verticalAlign=middle;resizable=0;points=[];" parent="Xvav63jD-Fan8T9vVufA-18" vertex="1" connectable="0">
          <mxGeometry x="-0.1992" y="-2" relative="1" as="geometry">
            <mxPoint as="offset" />
          </mxGeometry>
        </mxCell>
        <mxCell id="Xvav63jD-Fan8T9vVufA-21" value="" style="edgeStyle=orthogonalEdgeStyle;rounded=0;orthogonalLoop=1;jettySize=auto;html=1;" parent="1" source="8bAAXkou12h0lEfON1XA-44" target="8bAAXkou12h0lEfON1XA-45" edge="1">
          <mxGeometry relative="1" as="geometry">
            <mxPoint x="530.5" y="454" as="sourcePoint" />
            <mxPoint x="600.5" y="454" as="targetPoint" />
          </mxGeometry>
        </mxCell>
        <mxCell id="Xvav63jD-Fan8T9vVufA-22" value="&lt;font style=&quot;font-size: 25px;&quot;&gt;да&lt;/font&gt;" style="edgeLabel;html=1;align=center;verticalAlign=middle;resizable=0;points=[];" parent="Xvav63jD-Fan8T9vVufA-21" vertex="1" connectable="0">
          <mxGeometry x="-0.1992" y="-2" relative="1" as="geometry">
            <mxPoint as="offset" />
          </mxGeometry>
        </mxCell>
        <mxCell id="Xvav63jD-Fan8T9vVufA-31" value="" style="edgeStyle=orthogonalEdgeStyle;rounded=0;orthogonalLoop=1;jettySize=auto;html=1;" parent="1" source="8bAAXkou12h0lEfON1XA-37" target="8bAAXkou12h0lEfON1XA-41" edge="1">
          <mxGeometry relative="1" as="geometry">
            <mxPoint x="29.5" y="600" as="sourcePoint" />
            <mxPoint x="29.5" y="529" as="targetPoint" />
          </mxGeometry>
        </mxCell>
        <mxCell id="Xvav63jD-Fan8T9vVufA-32" value="&lt;font style=&quot;font-size: 25px;&quot;&gt;нет&lt;br&gt;&lt;/font&gt;" style="edgeLabel;html=1;align=center;verticalAlign=middle;resizable=0;points=[];" parent="Xvav63jD-Fan8T9vVufA-31" vertex="1" connectable="0">
          <mxGeometry x="-0.2059" y="-1" relative="1" as="geometry">
            <mxPoint as="offset" />
          </mxGeometry>
        </mxCell>
        <mxCell id="Xvav63jD-Fan8T9vVufA-33" value="" style="edgeStyle=orthogonalEdgeStyle;rounded=0;orthogonalLoop=1;jettySize=auto;html=1;" parent="1" source="8bAAXkou12h0lEfON1XA-41" target="8bAAXkou12h0lEfON1XA-44" edge="1">
          <mxGeometry relative="1" as="geometry">
            <mxPoint x="445.5" y="569" as="sourcePoint" />
            <mxPoint x="445.5" y="509" as="targetPoint" />
          </mxGeometry>
        </mxCell>
        <mxCell id="Xvav63jD-Fan8T9vVufA-34" value="&lt;font style=&quot;font-size: 25px;&quot;&gt;нет&lt;br&gt;&lt;/font&gt;" style="edgeLabel;html=1;align=center;verticalAlign=middle;resizable=0;points=[];" parent="Xvav63jD-Fan8T9vVufA-33" vertex="1" connectable="0">
          <mxGeometry x="-0.2059" y="-1" relative="1" as="geometry">
            <mxPoint as="offset" />
          </mxGeometry>
        </mxCell>
      </root>
    </mxGraphModel>
  </diagram>
</mxfile>
